<?xml version="1.0" encoding="utf-8" standalone="no"?>
<!DOCTYPE svg PUBLIC "-//W3C//DTD SVG 1.1//EN"
  "http://www.w3.org/Graphics/SVG/1.1/DTD/svg11.dtd">
<svg xmlns:xlink="http://www.w3.org/1999/xlink" width="414pt" height="180pt" viewBox="0 0 414 180" xmlns="http://www.w3.org/2000/svg" version="1.1">
 <metadata>
  <rdf:RDF xmlns:dc="http://purl.org/dc/elements/1.1/" xmlns:cc="http://creativecommons.org/ns#" xmlns:rdf="http://www.w3.org/1999/02/22-rdf-syntax-ns#">
   <cc:Work>
    <dc:type rdf:resource="http://purl.org/dc/dcmitype/StillImage"/>
    <dc:date>2026-05-04T19:25:35.419814</dc:date>
    <dc:format>image/svg+xml</dc:format>
    <dc:creator>
     <cc:Agent>
      <dc:title>Matplotlib v3.10.7, https://matplotlib.org/</dc:title>
     </cc:Agent>
    </dc:creator>
   </cc:Work>
  </rdf:RDF>
 </metadata>
 <defs>
  <style type="text/css">*{stroke-linejoin: round; stroke-linecap: butt}</style>
 </defs>
 <g id="figure_1">
  <g id="patch_1">
   <path d="M 0 180 
L 414 180 
L 414 0 
L 0 0 
L 0 180 
z
" style="fill: none"/>
  </g>
  <g id="axes_1">
   <g id="patch_2">
    <path d="M 62.946719 139.811563 
L 403.2 139.811563 
L 403.2 10.8 
L 62.946719 10.8 
L 62.946719 139.811563 
z
" style="fill: none"/>
   </g>
   <g id="patch_3">
    <path d="M 233.077696 131.742489 
C 248.043973 131.742489 262.399285 125.796324 272.982041 115.213568 
C 283.564797 104.630812 289.510962 90.2755 289.510962 75.309222 
C 289.510962 60.342945 283.564797 45.987633 272.982041 35.404877 
C 262.399285 24.822121 248.043973 18.875956 233.077696 18.875956 
C 218.111419 18.875956 203.756107 24.822121 193.173351 35.404877 
C 182.590594 45.987633 176.64443 60.342945 176.64443 75.309222 
C 176.64443 90.2755 182.590594 104.630812 193.173351 115.213568 
C 203.756107 125.796324 218.111419 131.742489 233.077696 131.742489 
z
" clip-path="url(#p15861b03da)" style="fill: #008800; stroke: #008800; stroke-linejoin: miter"/>
   </g>
   <g id="matplotlib.axis_1">
    <g id="xtick_1">
     <g id="line2d_1">
      <defs>
       <path id="mfab5f9386c" d="M 0 0 
L 0 3.5 
" style="stroke: #000000; stroke-width: 0.8"/>
      </defs>
      <g>
       <use xlink:href="#mfab5f9386c" x="100.358839" y="139.811563" style="stroke: #000000; stroke-width: 0.8"/>
      </g>
     </g>
     <g id="text_1">
      <!-- −15000 -->
      <g transform="translate(82.272355 153.650156) scale(0.09 -0.09)">
       <defs>
        <path id="DejaVuSans-2212" d="M 678 2272 
L 4684 2272 
L 4684 1741 
L 678 1741 
L 678 2272 
z
" transform="scale(0.015625)"/>
        <path id="DejaVuSans-31" d="M 794 531 
L 1825 531 
L 1825 4091 
L 703 3866 
L 703 4441 
L 1819 4666 
L 2450 4666 
L 2450 531 
L 3481 531 
L 3481 0 
L 794 0 
L 794 531 
z
" transform="scale(0.015625)"/>
        <path id="DejaVuSans-35" d="M 691 4666 
L 3169 4666 
L 3169 4134 
L 1269 4134 
L 1269 2991 
Q 1406 3038 1543 3061 
Q 1681 3084 1819 3084 
Q 2600 3084 3056 2656 
Q 3513 2228 3513 1497 
Q 3513 744 3044 326 
Q 2575 -91 1722 -91 
Q 1428 -91 1123 -41 
Q 819 9 494 109 
L 494 744 
Q 775 591 1075 516 
Q 1375 441 1709 441 
Q 2250 441 2565 725 
Q 2881 1009 2881 1497 
Q 2881 1984 2565 2268 
Q 2250 2553 1709 2553 
Q 1456 2553 1204 2497 
Q 953 2441 691 2322 
L 691 4666 
z
" transform="scale(0.015625)"/>
        <path id="DejaVuSans-30" d="M 2034 4250 
Q 1547 4250 1301 3770 
Q 1056 3291 1056 2328 
Q 1056 1369 1301 889 
Q 1547 409 2034 409 
Q 2525 409 2770 889 
Q 3016 1369 3016 2328 
Q 3016 3291 2770 3770 
Q 2525 4250 2034 4250 
z
M 2034 4750 
Q 2819 4750 3233 4129 
Q 3647 3509 3647 2328 
Q 3647 1150 3233 529 
Q 2819 -91 2034 -91 
Q 1250 -91 836 529 
Q 422 1150 422 2328 
Q 422 3509 836 4129 
Q 1250 4750 2034 4750 
z
" transform="scale(0.015625)"/>
       </defs>
       <use xlink:href="#DejaVuSans-2212"/>
       <use xlink:href="#DejaVuSans-31" transform="translate(83.789062 0)"/>
       <use xlink:href="#DejaVuSans-35" transform="translate(147.412109 0)"/>
       <use xlink:href="#DejaVuSans-30" transform="translate(211.035156 0)"/>
       <use xlink:href="#DejaVuSans-30" transform="translate(274.658203 0)"/>
       <use xlink:href="#DejaVuSans-30" transform="translate(338.28125 0)"/>
      </g>
     </g>
    </g>
    <g id="xtick_2">
     <g id="line2d_2">
      <g>
       <use xlink:href="#mfab5f9386c" x="144.598458" y="139.811563" style="stroke: #000000; stroke-width: 0.8"/>
      </g>
     </g>
     <g id="text_2">
      <!-- −10000 -->
      <g transform="translate(126.511974 153.650156) scale(0.09 -0.09)">
       <use xlink:href="#DejaVuSans-2212"/>
       <use xlink:href="#DejaVuSans-31" transform="translate(83.789062 0)"/>
       <use xlink:href="#DejaVuSans-30" transform="translate(147.412109 0)"/>
       <use xlink:href="#DejaVuSans-30" transform="translate(211.035156 0)"/>
       <use xlink:href="#DejaVuSans-30" transform="translate(274.658203 0)"/>
       <use xlink:href="#DejaVuSans-30" transform="translate(338.28125 0)"/>
      </g>
     </g>
    </g>
    <g id="xtick_3">
     <g id="line2d_3">
      <g>
       <use xlink:href="#mfab5f9386c" x="188.838077" y="139.811563" style="stroke: #000000; stroke-width: 0.8"/>
      </g>
     </g>
     <g id="text_3">
      <!-- −5000 -->
      <g transform="translate(173.614718 153.650156) scale(0.09 -0.09)">
       <use xlink:href="#DejaVuSans-2212"/>
       <use xlink:href="#DejaVuSans-35" transform="translate(83.789062 0)"/>
       <use xlink:href="#DejaVuSans-30" transform="translate(147.412109 0)"/>
       <use xlink:href="#DejaVuSans-30" transform="translate(211.035156 0)"/>
       <use xlink:href="#DejaVuSans-30" transform="translate(274.658203 0)"/>
      </g>
     </g>
    </g>
    <g id="xtick_4">
     <g id="line2d_4">
      <g>
       <use xlink:href="#mfab5f9386c" x="233.077696" y="139.811563" style="stroke: #000000; stroke-width: 0.8"/>
      </g>
     </g>
     <g id="text_4">
      <!-- 0 -->
      <g transform="translate(230.214571 153.650156) scale(0.09 -0.09)">
       <use xlink:href="#DejaVuSans-30"/>
      </g>
     </g>
    </g>
    <g id="xtick_5">
     <g id="line2d_5">
      <g>
       <use xlink:href="#mfab5f9386c" x="277.317315" y="139.811563" style="stroke: #000000; stroke-width: 0.8"/>
      </g>
     </g>
     <g id="text_5">
      <!-- 5000 -->
      <g transform="translate(265.864815 153.650156) scale(0.09 -0.09)">
       <use xlink:href="#DejaVuSans-35"/>
       <use xlink:href="#DejaVuSans-30" transform="translate(63.623047 0)"/>
       <use xlink:href="#DejaVuSans-30" transform="translate(127.246094 0)"/>
       <use xlink:href="#DejaVuSans-30" transform="translate(190.869141 0)"/>
      </g>
     </g>
    </g>
    <g id="xtick_6">
     <g id="line2d_6">
      <g>
       <use xlink:href="#mfab5f9386c" x="321.556933" y="139.811563" style="stroke: #000000; stroke-width: 0.8"/>
      </g>
     </g>
     <g id="text_6">
      <!-- 10000 -->
      <g transform="translate(307.241308 153.650156) scale(0.09 -0.09)">
       <use xlink:href="#DejaVuSans-31"/>
       <use xlink:href="#DejaVuSans-30" transform="translate(63.623047 0)"/>
       <use xlink:href="#DejaVuSans-30" transform="translate(127.246094 0)"/>
       <use xlink:href="#DejaVuSans-30" transform="translate(190.869141 0)"/>
       <use xlink:href="#DejaVuSans-30" transform="translate(254.492188 0)"/>
      </g>
     </g>
    </g>
    <g id="xtick_7">
     <g id="line2d_7">
      <g>
       <use xlink:href="#mfab5f9386c" x="365.796552" y="139.811563" style="stroke: #000000; stroke-width: 0.8"/>
      </g>
     </g>
     <g id="text_7">
      <!-- 15000 -->
      <g transform="translate(351.480927 153.650156) scale(0.09 -0.09)">
       <use xlink:href="#DejaVuSans-31"/>
       <use xlink:href="#DejaVuSans-35" transform="translate(63.623047 0)"/>
       <use xlink:href="#DejaVuSans-30" transform="translate(127.246094 0)"/>
       <use xlink:href="#DejaVuSans-30" transform="translate(190.869141 0)"/>
       <use xlink:href="#DejaVuSans-30" transform="translate(254.492188 0)"/>
      </g>
     </g>
    </g>
    <g id="text_8">
     <!-- $i_e$ Cord. [km] -->
     <g transform="translate(201.173359 167.120313) scale(0.1 -0.1)">
      <defs>
       <path id="DejaVuSans-Oblique-69" d="M 1172 4863 
L 1747 4863 
L 1606 4134 
L 1031 4134 
L 1172 4863 
z
M 909 3500 
L 1484 3500 
L 800 0 
L 225 0 
L 909 3500 
z
" transform="scale(0.015625)"/>
       <path id="DejaVuSans-Oblique-65" d="M 3078 2063 
Q 3088 2113 3092 2166 
Q 3097 2219 3097 2272 
Q 3097 2653 2873 2875 
Q 2650 3097 2266 3097 
Q 1838 3097 1509 2826 
Q 1181 2556 1013 2059 
L 3078 2063 
z
M 3578 1613 
L 903 1613 
Q 884 1494 878 1425 
Q 872 1356 872 1306 
Q 872 872 1139 634 
Q 1406 397 1894 397 
Q 2269 397 2603 481 
Q 2938 566 3225 728 
L 3116 159 
Q 2806 34 2476 -28 
Q 2147 -91 1806 -91 
Q 1078 -91 686 257 
Q 294 606 294 1247 
Q 294 1794 489 2264 
Q 684 2734 1063 3103 
Q 1306 3334 1642 3459 
Q 1978 3584 2356 3584 
Q 2950 3584 3301 3228 
Q 3653 2872 3653 2272 
Q 3653 2128 3634 1964 
Q 3616 1800 3578 1613 
z
" transform="scale(0.015625)"/>
       <path id="DejaVuSans-20" transform="scale(0.015625)"/>
       <path id="DejaVuSans-43" d="M 4122 4306 
L 4122 3641 
Q 3803 3938 3442 4084 
Q 3081 4231 2675 4231 
Q 1875 4231 1450 3742 
Q 1025 3253 1025 2328 
Q 1025 1406 1450 917 
Q 1875 428 2675 428 
Q 3081 428 3442 575 
Q 3803 722 4122 1019 
L 4122 359 
Q 3791 134 3420 21 
Q 3050 -91 2638 -91 
Q 1578 -91 968 557 
Q 359 1206 359 2328 
Q 359 3453 968 4101 
Q 1578 4750 2638 4750 
Q 3056 4750 3426 4639 
Q 3797 4528 4122 4306 
z
" transform="scale(0.015625)"/>
       <path id="DejaVuSans-6f" d="M 1959 3097 
Q 1497 3097 1228 2736 
Q 959 2375 959 1747 
Q 959 1119 1226 758 
Q 1494 397 1959 397 
Q 2419 397 2687 759 
Q 2956 1122 2956 1747 
Q 2956 2369 2687 2733 
Q 2419 3097 1959 3097 
z
M 1959 3584 
Q 2709 3584 3137 3096 
Q 3566 2609 3566 1747 
Q 3566 888 3137 398 
Q 2709 -91 1959 -91 
Q 1206 -91 779 398 
Q 353 888 353 1747 
Q 353 2609 779 3096 
Q 1206 3584 1959 3584 
z
" transform="scale(0.015625)"/>
       <path id="DejaVuSans-72" d="M 2631 2963 
Q 2534 3019 2420 3045 
Q 2306 3072 2169 3072 
Q 1681 3072 1420 2755 
Q 1159 2438 1159 1844 
L 1159 0 
L 581 0 
L 581 3500 
L 1159 3500 
L 1159 2956 
Q 1341 3275 1631 3429 
Q 1922 3584 2338 3584 
Q 2397 3584 2469 3576 
Q 2541 3569 2628 3553 
L 2631 2963 
z
" transform="scale(0.015625)"/>
       <path id="DejaVuSans-64" d="M 2906 2969 
L 2906 4863 
L 3481 4863 
L 3481 0 
L 2906 0 
L 2906 525 
Q 2725 213 2448 61 
Q 2172 -91 1784 -91 
Q 1150 -91 751 415 
Q 353 922 353 1747 
Q 353 2572 751 3078 
Q 1150 3584 1784 3584 
Q 2172 3584 2448 3432 
Q 2725 3281 2906 2969 
z
M 947 1747 
Q 947 1113 1208 752 
Q 1469 391 1925 391 
Q 2381 391 2643 752 
Q 2906 1113 2906 1747 
Q 2906 2381 2643 2742 
Q 2381 3103 1925 3103 
Q 1469 3103 1208 2742 
Q 947 2381 947 1747 
z
" transform="scale(0.015625)"/>
       <path id="DejaVuSans-2e" d="M 684 794 
L 1344 794 
L 1344 0 
L 684 0 
L 684 794 
z
" transform="scale(0.015625)"/>
       <path id="DejaVuSans-5b" d="M 550 4863 
L 1875 4863 
L 1875 4416 
L 1125 4416 
L 1125 -397 
L 1875 -397 
L 1875 -844 
L 550 -844 
L 550 4863 
z
" transform="scale(0.015625)"/>
       <path id="DejaVuSans-6b" d="M 581 4863 
L 1159 4863 
L 1159 1991 
L 2875 3500 
L 3609 3500 
L 1753 1863 
L 3688 0 
L 2938 0 
L 1159 1709 
L 1159 0 
L 581 0 
L 581 4863 
z
" transform="scale(0.015625)"/>
       <path id="DejaVuSans-6d" d="M 3328 2828 
Q 3544 3216 3844 3400 
Q 4144 3584 4550 3584 
Q 5097 3584 5394 3201 
Q 5691 2819 5691 2113 
L 5691 0 
L 5113 0 
L 5113 2094 
Q 5113 2597 4934 2840 
Q 4756 3084 4391 3084 
Q 3944 3084 3684 2787 
Q 3425 2491 3425 1978 
L 3425 0 
L 2847 0 
L 2847 2094 
Q 2847 2600 2669 2842 
Q 2491 3084 2119 3084 
Q 1678 3084 1418 2786 
Q 1159 2488 1159 1978 
L 1159 0 
L 581 0 
L 581 3500 
L 1159 3500 
L 1159 2956 
Q 1356 3278 1631 3431 
Q 1906 3584 2284 3584 
Q 2666 3584 2933 3390 
Q 3200 3197 3328 2828 
z
" transform="scale(0.015625)"/>
       <path id="DejaVuSans-5d" d="M 1947 4863 
L 1947 -844 
L 622 -844 
L 622 -397 
L 1369 -397 
L 1369 4416 
L 622 4416 
L 622 4863 
L 1947 4863 
z
" transform="scale(0.015625)"/>
      </defs>
      <use xlink:href="#DejaVuSans-Oblique-69" transform="translate(0 0.015625)"/>
      <use xlink:href="#DejaVuSans-Oblique-65" transform="translate(27.783203 -16.390625) scale(0.7)"/>
      <use xlink:href="#DejaVuSans-20" transform="translate(73.583984 0.015625)"/>
      <use xlink:href="#DejaVuSans-43" transform="translate(105.371094 0.015625)"/>
      <use xlink:href="#DejaVuSans-6f" transform="translate(175.195312 0.015625)"/>
      <use xlink:href="#DejaVuSans-72" transform="translate(236.376953 0.015625)"/>
      <use xlink:href="#DejaVuSans-64" transform="translate(277.490234 0.015625)"/>
      <use xlink:href="#DejaVuSans-2e" transform="translate(340.966797 0.015625)"/>
      <use xlink:href="#DejaVuSans-20" transform="translate(372.753906 0.015625)"/>
      <use xlink:href="#DejaVuSans-5b" transform="translate(404.541016 0.015625)"/>
      <use xlink:href="#DejaVuSans-6b" transform="translate(443.554688 0.015625)"/>
      <use xlink:href="#DejaVuSans-6d" transform="translate(501.464844 0.015625)"/>
      <use xlink:href="#DejaVuSans-5d" transform="translate(598.876953 0.015625)"/>
     </g>
    </g>
   </g>
   <g id="matplotlib.axis_2">
    <g id="ytick_1">
     <g id="line2d_8">
      <defs>
       <path id="mb23c159a1b" d="M 0 0 
L -3.5 0 
" style="stroke: #000000; stroke-width: 0.8"/>
      </defs>
      <g>
       <use xlink:href="#mb23c159a1b" x="62.946719" y="119.548841" style="stroke: #000000; stroke-width: 0.8"/>
      </g>
     </g>
     <g id="text_9">
      <!-- −5000 -->
      <g transform="translate(25.5 122.968138) scale(0.09 -0.09)">
       <use xlink:href="#DejaVuSans-2212"/>
       <use xlink:href="#DejaVuSans-35" transform="translate(83.789062 0)"/>
       <use xlink:href="#DejaVuSans-30" transform="translate(147.412109 0)"/>
       <use xlink:href="#DejaVuSans-30" transform="translate(211.035156 0)"/>
       <use xlink:href="#DejaVuSans-30" transform="translate(274.658203 0)"/>
      </g>
     </g>
    </g>
    <g id="ytick_2">
     <g id="line2d_9">
      <g>
       <use xlink:href="#mb23c159a1b" x="62.946719" y="97.429032" style="stroke: #000000; stroke-width: 0.8"/>
      </g>
     </g>
     <g id="text_10">
      <!-- −2500 -->
      <g transform="translate(25.5 100.848329) scale(0.09 -0.09)">
       <defs>
        <path id="DejaVuSans-32" d="M 1228 531 
L 3431 531 
L 3431 0 
L 469 0 
L 469 531 
Q 828 903 1448 1529 
Q 2069 2156 2228 2338 
Q 2531 2678 2651 2914 
Q 2772 3150 2772 3378 
Q 2772 3750 2511 3984 
Q 2250 4219 1831 4219 
Q 1534 4219 1204 4116 
Q 875 4013 500 3803 
L 500 4441 
Q 881 4594 1212 4672 
Q 1544 4750 1819 4750 
Q 2544 4750 2975 4387 
Q 3406 4025 3406 3419 
Q 3406 3131 3298 2873 
Q 3191 2616 2906 2266 
Q 2828 2175 2409 1742 
Q 1991 1309 1228 531 
z
" transform="scale(0.015625)"/>
       </defs>
       <use xlink:href="#DejaVuSans-2212"/>
       <use xlink:href="#DejaVuSans-32" transform="translate(83.789062 0)"/>
       <use xlink:href="#DejaVuSans-35" transform="translate(147.412109 0)"/>
       <use xlink:href="#DejaVuSans-30" transform="translate(211.035156 0)"/>
       <use xlink:href="#DejaVuSans-30" transform="translate(274.658203 0)"/>
      </g>
     </g>
    </g>
    <g id="ytick_3">
     <g id="line2d_10">
      <g>
       <use xlink:href="#mb23c159a1b" x="62.946719" y="75.309222" style="stroke: #000000; stroke-width: 0.8"/>
      </g>
     </g>
     <g id="text_11">
      <!-- 0 -->
      <g transform="translate(50.220469 78.728519) scale(0.09 -0.09)">
       <use xlink:href="#DejaVuSans-30"/>
      </g>
     </g>
    </g>
    <g id="ytick_4">
     <g id="line2d_11">
      <g>
       <use xlink:href="#mb23c159a1b" x="62.946719" y="53.189413" style="stroke: #000000; stroke-width: 0.8"/>
      </g>
     </g>
     <g id="text_12">
      <!-- 2500 -->
      <g transform="translate(33.041719 56.60871) scale(0.09 -0.09)">
       <use xlink:href="#DejaVuSans-32"/>
       <use xlink:href="#DejaVuSans-35" transform="translate(63.623047 0)"/>
       <use xlink:href="#DejaVuSans-30" transform="translate(127.246094 0)"/>
       <use xlink:href="#DejaVuSans-30" transform="translate(190.869141 0)"/>
      </g>
     </g>
    </g>
    <g id="ytick_5">
     <g id="line2d_12">
      <g>
       <use xlink:href="#mb23c159a1b" x="62.946719" y="31.069604" style="stroke: #000000; stroke-width: 0.8"/>
      </g>
     </g>
     <g id="text_13">
      <!-- 5000 -->
      <g transform="translate(33.041719 34.4889) scale(0.09 -0.09)">
       <use xlink:href="#DejaVuSans-35"/>
       <use xlink:href="#DejaVuSans-30" transform="translate(63.623047 0)"/>
       <use xlink:href="#DejaVuSans-30" transform="translate(127.246094 0)"/>
       <use xlink:href="#DejaVuSans-30" transform="translate(190.869141 0)"/>
      </g>
     </g>
    </g>
    <g id="text_14">
     <!-- $i_p$ Cord. [km] -->
     <g transform="translate(18.4 107.305781) rotate(-90) scale(0.1 -0.1)">
      <defs>
       <path id="DejaVuSans-Oblique-70" d="M 3175 2156 
Q 3175 2616 2975 2859 
Q 2775 3103 2400 3103 
Q 2144 3103 1911 2972 
Q 1678 2841 1497 2591 
Q 1319 2344 1212 1994 
Q 1106 1644 1106 1300 
Q 1106 863 1306 627 
Q 1506 391 1875 391 
Q 2147 391 2380 519 
Q 2613 647 2778 891 
Q 2956 1147 3065 1494 
Q 3175 1841 3175 2156 
z
M 1394 2969 
Q 1625 3272 1939 3428 
Q 2253 3584 2638 3584 
Q 3175 3584 3472 3232 
Q 3769 2881 3769 2247 
Q 3769 1728 3584 1258 
Q 3400 788 3053 416 
Q 2822 169 2531 39 
Q 2241 -91 1919 -91 
Q 1547 -91 1294 64 
Q 1041 219 916 525 
L 556 -1331 
L -19 -1331 
L 922 3500 
L 1497 3500 
L 1394 2969 
z
" transform="scale(0.015625)"/>
      </defs>
      <use xlink:href="#DejaVuSans-Oblique-69" transform="translate(0 0.015625)"/>
      <use xlink:href="#DejaVuSans-Oblique-70" transform="translate(27.783203 -16.390625) scale(0.7)"/>
      <use xlink:href="#DejaVuSans-20" transform="translate(74.951172 0.015625)"/>
      <use xlink:href="#DejaVuSans-43" transform="translate(106.738281 0.015625)"/>
      <use xlink:href="#DejaVuSans-6f" transform="translate(176.5625 0.015625)"/>
      <use xlink:href="#DejaVuSans-72" transform="translate(237.744141 0.015625)"/>
      <use xlink:href="#DejaVuSans-64" transform="translate(278.857422 0.015625)"/>
      <use xlink:href="#DejaVuSans-2e" transform="translate(342.333984 0.015625)"/>
      <use xlink:href="#DejaVuSans-20" transform="translate(374.121094 0.015625)"/>
      <use xlink:href="#DejaVuSans-5b" transform="translate(405.908203 0.015625)"/>
      <use xlink:href="#DejaVuSans-6b" transform="translate(444.921875 0.015625)"/>
      <use xlink:href="#DejaVuSans-6d" transform="translate(502.832031 0.015625)"/>
      <use xlink:href="#DejaVuSans-5d" transform="translate(600.244141 0.015625)"/>
     </g>
    </g>
   </g>
   <g id="line2d_13">
    <path d="M 250.125998 19.196653 
L 246.816155 18.295893 
L 243.459313 17.590187 
L 240.066957 17.081952 
L 236.650693 16.772924 
L 233.222209 16.664162 
L 229.793233 16.756037 
L 226.375497 17.048234 
L 222.980694 17.539754 
L 219.620438 18.228916 
L 216.306225 19.113361 
L 213.049393 20.190063 
L 209.861086 21.45534 
L 206.75221 22.904862 
L 203.733402 24.53367 
L 200.814992 26.336192 
L 198.006963 28.306261 
L 195.318922 30.437138 
L 192.760065 32.721531 
L 190.339149 35.151626 
L 188.064456 37.71911 
L 185.943769 40.415197 
L 183.984342 43.230666 
L 182.192881 46.155883 
L 180.575516 49.180842 
L 179.137779 52.295192 
L 177.884592 55.48828 
L 176.820243 58.74918 
L 175.948374 62.066735 
L 175.271969 65.429595 
L 174.793343 68.826255 
L 174.514135 72.245093 
L 174.435302 75.674412 
L 174.557115 79.102479 
L 174.879157 82.517564 
L 175.400329 85.907982 
L 176.118848 89.262132 
L 177.032258 92.568538 
L 178.137434 95.815886 
L 179.430597 98.993064 
L 180.907323 102.089201 
L 182.56256 105.093701 
L 184.390647 107.996284 
L 186.38533 110.787016 
L 188.539783 113.456346 
L 190.846637 115.99514 
L 193.297998 118.394707 
L 195.88548 120.646837 
L 198.600229 122.743821 
L 201.432956 124.678481 
L 204.373969 126.444196 
L 207.413204 128.034921 
L 210.540262 129.445212 
L 213.744444 130.67024 
L 217.014783 131.705812 
L 220.34009 132.548382 
L 223.708984 133.195065 
L 227.109938 133.643645 
L 230.531312 133.892585 
L 233.961396 133.941033 
L 237.388453 133.788819 
L 240.800753 133.436462 
L 244.186619 132.885168 
L 247.53446 132.136821 
L 250.832818 131.19398 
L 254.070404 130.05987 
L 257.236138 128.738372 
L 260.319182 127.234007 
L 263.308985 125.551921 
L 266.195311 123.697871 
L 268.968282 121.678201 
L 271.618405 119.499822 
L 274.136607 117.170191 
L 276.514269 114.697279 
L 278.74325 112.08955 
L 280.81592 109.355929 
L 282.725183 106.505773 
L 284.464503 103.548836 
L 286.027926 100.495237 
L 287.410099 97.355429 
L 288.60629 94.140159 
L 289.612403 90.860432 
L 290.424992 87.527475 
L 291.041275 84.152697 
L 291.459141 80.74765 
L 291.677158 77.323989 
L 291.694581 73.893434 
L 291.511347 70.46773 
L 291.128083 67.058602 
L 290.546101 63.67772 
L 289.767392 60.33666 
L 288.794621 57.046856 
L 287.631117 53.819573 
L 286.280862 50.665856 
L 284.748479 47.596504 
L 283.039214 44.622024 
L 281.158916 41.752598 
L 279.114023 38.998051 
L 276.911535 36.367811 
L 274.558992 33.870884 
L 272.064446 31.515817 
L 269.436436 29.310672 
L 266.68396 27.262998 
L 263.816441 25.379806 
L 260.843695 23.667544 
L 257.775898 22.132071 
L 254.623553 20.778645 
L 251.397451 19.6119 
L 248.108637 18.635829 
L 244.768369 17.853775 
L 241.388083 17.268413 
L 237.97935 16.881749 
L 234.55384 16.695106 
L 231.123281 16.709123 
L 227.699416 16.923752 
L 224.293967 17.338258 
L 220.918591 17.951222 
L 217.584845 18.760546 
L 214.304142 19.763459 
L 211.087713 20.956527 
L 207.946568 22.335667 
L 204.89146 23.896157 
L 201.93285 25.632655 
L 199.080866 27.539217 
L 196.345272 29.609314 
L 193.735435 31.835861 
L 191.260288 34.211234 
L 188.928305 36.727303 
L 186.747471 39.375453 
L 184.725251 42.146619 
L 182.868569 45.031315 
L 181.183781 48.019666 
L 179.676656 51.10144 
L 178.352354 54.266088 
L 177.21541 57.502776 
L 176.269717 60.800422 
L 175.518514 64.147738 
L 174.964373 67.533264 
L 174.609192 70.945409 
L 174.45419 74.37249 
L 174.499897 77.802775 
L 174.746158 81.224519 
L 175.192132 84.626007 
L 175.836293 87.995593 
L 176.676437 91.321741 
L 177.709689 94.593062 
L 178.932513 97.798353 
L 180.340723 100.926641 
L 181.929499 103.967213 
L 183.693403 106.909658 
L 185.626396 109.7439 
L 187.721863 112.460233 
L 189.972628 115.049356 
L 192.370987 117.502401 
L 194.908729 119.810969 
L 197.577165 121.967152 
L 200.36716 123.963566 
L 203.269162 125.793373 
L 206.273233 127.450306 
L 209.369088 128.928689 
L 212.546126 130.223456 
L 215.793469 131.330173 
L 219.099996 132.245048 
L 222.454386 132.964945 
L 225.845152 133.487397 
L 229.260682 133.810613 
L 232.68928 133.933485 
L 236.119205 133.855588 
L 239.538709 133.577188 
L 242.936083 133.099235 
L 246.29969 132.423365 
L 249.61801 131.551891 
L 252.879679 130.487794 
L 256.073524 129.234717 
L 259.188606 127.796951 
L 262.214255 126.179417 
L 265.140108 124.387654 
L 267.956142 122.427796 
L 270.652711 120.306557 
L 273.220577 118.031198 
L 275.650944 115.609513 
L 277.935486 113.049795 
L 280.066377 110.36081 
L 282.036317 107.551768 
L 283.838556 104.63229 
L 285.46692 101.612375 
L 286.91583 98.502367 
L 288.180322 95.312917 
L 289.256063 92.054951 
L 290.139367 88.739627 
L 290.827206 85.378303 
L 291.317224 81.982491 
L 291.607741 78.563826 
L 291.697759 75.134016 
L 291.586971 71.704811 
L 291.275753 68.287957 
L 290.765172 64.895159 
L 290.056975 61.538039 
L 289.153587 58.228099 
L 288.058102 54.976677 
L 286.774272 51.794913 
L 285.306495 48.693707 
L 283.659798 45.683683 
L 281.839822 42.775153 
L 279.8528 39.97808 
L 277.705539 37.302048 
L 275.405395 34.756224 
L 272.960247 32.34933 
L 270.378472 30.089614 
L 267.668914 27.984815 
L 264.840854 26.042145 
L 261.903981 24.26826 
L 258.868355 22.669237 
L 255.744377 21.250555 
L 252.542748 20.017075 
L 249.274437 18.973022 
L 245.950641 18.121974 
L 242.582747 17.466848 
L 239.182294 17.009887 
L 235.760932 16.752659 
L 232.330381 16.696045 
L 228.902396 16.840238 
L 225.488721 17.184747 
L 222.101051 17.72839 
L 218.750992 18.469305 
L 215.450022 19.404955 
L 212.209451 20.532134 
L 209.040381 21.846981 
L 205.953671 23.344991 
L 202.959895 25.021033 
L 200.06931 26.869366 
L 197.29182 28.883656 
L 194.636941 31.057005 
L 192.11377 33.381965 
L 189.730951 35.850573 
L 187.49665 38.454371 
L 185.418522 41.184437 
L 183.503689 44.031419 
L 181.758712 46.985564 
L 180.189569 50.03675 
L 178.80164 53.174524 
L 177.599679 56.388135 
L 176.587808 59.666573 
L 175.769493 62.998606 
L 175.147541 66.372816 
L 174.724083 69.777642 
L 174.500573 73.20142 
L 174.477777 76.632415 
L 174.655775 80.058873 
L 175.03396 83.469052 
L 175.611037 86.851266 
L 176.38503 90.193926 
L 177.353288 93.485578 
L 178.512496 96.71494 
L 179.858683 99.870946 
L 181.387236 102.94278 
L 183.09292 105.919913 
L 184.969891 108.792144 
L 187.01172 111.549629 
L 189.211409 114.182916 
L 191.561424 116.682982 
L 194.053711 119.041257 
L 196.679731 121.249657 
L 199.430486 123.300612 
L 202.296549 125.187091 
L 205.2681 126.902629 
L 208.334956 128.441343 
L 211.486607 129.797958 
L 214.712251 130.967823 
L 218.000836 131.946926 
L 221.341089 132.73191 
L 224.721563 133.320081 
L 228.130673 133.709422 
L 231.556734 133.898596 
L 234.988003 133.886953 
L 238.412721 133.674529 
L 241.819148 133.262052 
L 245.195609 132.650933 
L 248.530528 131.843264 
L 251.812475 130.841811 
L 255.030199 129.650006 
L 258.172669 128.271932 
L 261.229112 126.712311 
L 264.18905 124.976487 
L 267.042335 123.070409 
L 269.779185 121.000609 
L 272.390218 118.774181 
L 274.866482 116.398756 
L 277.199486 113.882475 
L 279.381231 111.233963 
L 281.404236 108.4623 
L 283.261564 105.576986 
L 284.946847 102.587912 
L 286.454306 99.505322 
L 287.778772 96.339786 
L 288.915702 93.102155 
L 289.861196 89.803528 
L 290.612013 86.455214 
L 291.165576 83.068692 
L 291.519986 79.655571 
L 291.674027 76.227554 
L 291.62717 72.796393 
L 291.379573 69.37385 
L 290.932084 65.971662 
L 290.286237 62.601492 
L 289.444243 59.274896 
L 288.40899 56.003279 
L 287.184025 52.79786 
L 285.773549 49.66963 
L 284.182395 46.629316 
L 282.41602 43.687343 
L 280.480478 40.853797 
L 278.382405 38.138395 
L 276.128995 35.550449 
L 273.727974 33.098833 
L 271.187574 30.791953 
L 268.516505 28.637719 
L 265.723925 26.643519 
L 262.819409 24.816192 
L 259.812916 23.162003 
L 256.714756 21.686625 
L 253.535552 20.395119 
L 250.286205 19.291913 
L 246.977856 18.38079 
L 243.621848 17.664876 
L 240.229689 17.146624 
L 236.813011 16.827814 
L 233.38353 16.70954 
L 229.953005 16.792206 
L 226.533201 17.075532 
L 223.135844 17.558545 
L 219.772585 18.239591 
L 216.454956 19.116334 
L 213.194335 20.185768 
L 210.001903 21.444228 
L 206.888607 22.887398 
L 203.865125 24.510331 
L 200.941823 26.307463 
L 198.128726 28.272631 
L 195.435483 30.399097 
L 192.87133 32.679571 
L 190.44506 35.106232 
L 188.164996 37.670759 
L 186.038957 40.364359 
L 184.074235 43.177795 
L 182.27757 46.10142 
L 180.655123 49.125208 
L 179.212461 52.238789 
L 177.954533 55.431485 
L 176.885654 58.692346 
L 176.009492 62.010192 
L 175.329053 65.373643 
L 174.846672 68.771164 
L 174.564005 72.191105 
L 174.482023 75.621734 
L 174.601011 79.051287 
L 174.92056 82.467999 
L 175.439578 85.860153 
L 176.156286 89.216114 
L 177.068227 92.524371 
L 178.172276 95.773575 
L 179.464648 98.952583 
L 180.940912 102.050487 
L 182.596006 105.056662 
L 184.424253 107.960793 
L 186.419386 110.752918 
L 188.574561 113.42346 
L 190.882388 115.963254 
L 193.334953 118.36359 
L 195.923844 120.616231 
L 198.640182 122.713448 
L 201.474652 124.648046 
L 204.417529 126.413385 
L 207.458721 128.003408 
L 210.587797 129.412659 
L 213.794023 130.6363 
L 217.0664 131.670131 
L 220.393703 132.510604 
L 223.764516 133.154831 
L 227.167276 133.600601 
L 230.590309 133.846382 
L 234.021871 133.891327 
L 237.450188 133.735281 
L 240.863497 133.378776 
L 244.250087 132.823033 
L 247.598337 132.069956 
L 250.896758 131.122128 
L 254.134034 129.982797 
L 257.299053 128.655872 
L 260.380956 127.145904 
L 263.369167 125.458071 
L 266.25343 123.598163 
L 269.023849 121.572561 
L 271.670915 119.388213 
L 274.185543 117.052614 
L 276.559104 114.573776 
L 278.783449 111.960205 
L 280.850947 109.220868 
L 282.754499 106.365163 
L 284.487573 103.402888 
L 286.044219 100.344209 
L 287.419093 97.199622 
L 288.607476 93.979917 
L 289.605287 90.696144 
L 290.4091 87.359569 
L 291.016155 83.981645 
L 291.424366 80.573964 
L 291.632331 77.148222 
L 291.639335 73.716175 
L 291.44535 70.289601 
L 291.051043 66.880261 
L 290.457764 63.499858 
L 289.667547 60.159992 
L 288.683104 56.872127 
L 287.507812 53.647549 
L 286.145703 50.497326 
L 284.601451 47.432271 
L 282.880355 44.462904 
L 280.98832 41.599418 
L 278.931838 38.851641 
L 276.717971 36.229009 
L 274.354314 33.740524 
L 271.848981 31.394729 
L 269.210571 29.199678 
L 266.448138 27.162905 
L 263.571165 25.291404 
L 260.589527 23.5916 
L 257.513459 22.069329 
L 254.353519 20.729817 
L 251.120551 19.577664 
L 247.825655 18.616826 
L 244.48014 17.850602 
L 241.09549 17.281624 
L 237.683323 16.911847 
L 234.255353 16.742542 
L 230.823348 16.77429 
L 227.399091 17.006986 
L 223.994336 17.439831 
L 220.620774 18.071342 
L 217.289984 18.89935 
L 214.013404 19.921017 
L 210.802282 21.132836 
L 207.667642 22.530647 
L 204.620248 24.109655 
L 201.670564 25.864437 
L 198.828718 27.788973 
L 196.104465 29.876657 
L 193.507162 32.120322 
L 191.045727 34.512268 
L 188.728611 37.044282 
L 186.563773 39.707675 
L 184.558647 42.493302 
L 182.72012 45.3916 
L 181.054506 48.392619 
L 179.567528 51.486055 
L 178.264294 54.661287 
L 177.14928 57.907414 
L 176.22632 61.213287 
L 175.498585 64.567555 
L 174.968576 67.958699 
L 174.638117 71.375077 
L 174.508344 74.804957 
L 174.579707 78.236561 
L 174.851964 81.658103 
L 175.324181 85.057832 
L 175.994741 88.424073 
L 176.861344 91.745264 
L 177.921017 95.009999 
L 179.170122 98.207064 
L 180.604374 101.325476 
L 182.218848 104.354525 
L 184.008003 107.283804 
L 185.965696 110.10325 
L 188.085205 112.803178 
L 190.359253 115.374312 
L 192.780031 117.807817 
L 195.339227 120.095333 
L 198.028052 122.228999 
L 200.837273 124.201484 
L 203.75724 126.006008 
L 206.777924 127.63637 
L 209.888949 129.086964 
L 213.07963 130.352806 
L 216.339007 131.429542 
L 219.655882 132.313472 
L 223.018861 133.001553 
L 226.416389 133.491419 
L 229.836793 133.781384 
L 233.26832 133.870447 
L 236.699183 133.7583 
L 240.117594 133.445325 
L 243.511806 132.932594 
L 246.870158 132.221865 
L 250.181107 131.315578 
L 253.433274 130.216843 
L 256.615484 128.929435 
L 259.716799 127.457773 
L 262.726563 125.806912 
L 265.634431 123.982522 
L 268.430409 121.99087 
L 271.104886 119.838798 
L 273.64867 117.5337 
L 276.053016 115.083494 
L 278.309661 112.4966 
L 280.410845 109.781905 
L 282.349346 106.948739 
L 284.118497 104.006836 
L 285.712217 100.966308 
L 287.125025 97.837602 
L 288.352062 94.631473 
L 289.389108 91.35894 
L 290.232596 88.031252 
L 290.879623 84.659848 
L 291.327964 81.256315 
L 291.576075 77.832353 
L 291.6231 74.399729 
L 291.468876 70.970243 
L 291.113931 67.555684 
L 290.559482 64.16779 
L 289.807434 60.818209 
L 288.860368 57.518454 
L 287.721538 54.27987 
L 286.394857 51.113589 
L 284.884882 48.030497 
L 283.196802 45.041193 
L 281.336418 42.155957 
L 279.310126 39.384709 
L 277.124889 36.736981 
L 274.78822 34.221876 
L 272.308148 31.848044 
L 269.6932 29.623646 
L 266.952367 27.556336 
L 264.09507 25.653222 
L 261.131132 23.920851 
L 258.070742 22.36518 
L 254.924421 20.991561 
L 251.702989 19.80472 
L 248.417521 18.80874 
L 245.079314 18.007048 
L 241.699845 17.402404 
L 238.290736 16.99689 
L 234.863709 16.791903 
L 231.430552 16.78815 
L 228.003071 16.985648 
L 224.593053 17.383719 
L 221.212225 17.980998 
L 217.872215 18.775432 
L 214.584512 19.764293 
L 211.360422 20.944181 
L 208.211038 22.311042 
L 205.147191 23.860175 
L 202.179421 25.586257 
L 199.317934 27.483353 
L 196.572574 29.544941 
L 193.952788 31.763932 
L 191.467588 34.132694 
L 189.125526 36.643082 
L 186.93466 39.286461 
L 184.902529 42.053742 
L 183.036126 44.935408 
L 181.341873 47.921547 
L 179.8256 51.00189 
L 178.492527 54.165843 
L 177.347243 57.402524 
L 176.393691 60.700798 
L 175.635156 64.049319 
L 175.074251 67.436567 
L 174.712909 70.850891 
L 174.552379 74.280542 
L 174.593216 77.71372 
L 174.835283 81.138612 
L 175.277753 84.543431 
L 175.919106 87.916461 
L 176.75714 91.246097 
L 177.788976 94.52088 
L 179.011066 97.729537 
L 180.41921 100.861027 
L 182.008565 103.904569 
L 183.773665 106.849689 
L 185.708441 109.686249 
L 187.806237 112.404483 
L 190.059838 114.995035 
L 192.461491 117.448985 
L 195.002933 119.757883 
L 197.675417 121.913776 
L 200.469748 123.909241 
L 203.376312 125.737404 
L 206.385107 127.391971 
L 209.485779 128.86724 
L 212.667653 130.158128 
L 215.919778 131.260185 
L 219.230959 132.169614 
L 222.589798 132.883277 
L 225.984729 133.398713 
L 229.404062 133.714141 
L 232.836025 133.828471 
L 236.268799 133.741304 
L 239.690567 133.452935 
L 243.089547 132.964351 
L 246.454036 132.27723 
L 249.772445 131.393933 
L 253.033344 130.317497 
L 256.225505 129.051623 
L 259.337929 127.600666 
L 262.359895 125.969619 
L 265.280993 124.164095 
L 268.09116 122.190305 
L 270.780715 120.055045 
L 273.340389 117.765664 
L 275.761362 115.330045 
L 278.035288 112.756576 
L 280.154328 110.05412 
L 282.111181 107.231981 
L 283.8991 104.299878 
L 285.511923 101.267908 
L 286.944087 98.146515 
L 288.190652 94.946453 
L 289.24732 91.678744 
L 290.110442 88.354649 
L 290.777041 84.985618 
L 291.244815 81.583257 
L 291.512146 78.159289 
L 291.578108 74.725514 
L 291.442468 71.293769 
L 291.105689 67.875881 
L 290.568928 64.483633 
L 289.834028 61.128714 
L 288.903518 57.822689 
L 287.780601 54.576951 
L 286.469141 51.402688 
L 284.973655 48.310843 
L 283.299293 45.312078 
L 281.451824 42.41673 
L 279.437612 39.634784 
L 277.263596 36.975833 
L 274.937269 34.449046 
L 272.466647 32.063138 
L 269.860247 29.826338 
L 267.127046 27.746359 
L 264.276466 25.830375 
L 261.318331 24.084996 
L 258.262837 22.516242 
L 255.120517 21.129528 
L 251.902208 19.92964 
L 248.619007 18.920721 
L 245.282236 18.106255 
L 241.903398 17.489054 
L 238.494144 17.071251 
L 235.066233 16.854292 
L 231.631486 16.838929 
L 228.201748 17.025221 
L 224.788852 17.412528 
L 221.404566 17.99952 
L 218.060567 18.784177 
L 214.768391 19.763796 
L 211.539395 20.935003 
L 208.384718 22.293762 
L 205.315247 23.83539 
L 202.341573 25.554572 
L 199.473958 27.445383 
L 196.722295 29.501302 
L 194.09608 31.715245 
L 191.604378 34.079574 
L 189.25579 36.586137 
L 187.058425 39.226286 
L 185.01987 41.990917 
L 183.14716 44.870497 
L 181.446765 47.855091 
L 179.924559 50.934401 
L 178.585801 54.0978 
L 177.435119 57.334375 
L 176.476489 60.63296 
L 175.713228 63.982171 
L 175.147977 67.370447 
L 174.782695 70.786094 
L 174.61865 74.217326 
L 174.656418 77.652296 
L 174.895876 81.079141 
L 175.336206 84.486027 
L 175.975896 87.861191 
L 176.812746 91.192978 
L 177.843875 94.469879 
L 179.065733 97.680582 
L 180.47411 100.813992 
L 182.064151 103.859285 
L 183.830373 106.805936 
L 185.766684 109.643763 
L 187.866407 112.362956 
L 190.122295 114.954115 
L 192.526562 117.408277 
L 195.070911 119.716956 
L 197.746559 121.872168 
L 200.54427 123.866455 
L 203.454381 125.692914 
L 206.466841 127.345222 
L 209.571239 128.817653 
L 212.756854 130.105107 
L 216.01268 131.203123 
L 219.327466 132.10789 
L 222.689762 132.81627 
L 226.08795 133.325797 
L 229.510275 133.634696 
L 232.944903 133.741883 
L 236.37995 133.646972 
L 239.803526 133.350277 
L 243.203783 132.852809 
L 246.56896 132.156276 
L 249.887412 131.263071 
L 253.147649 130.176272 
L 256.338381 128.899628 
L 259.44856 127.437542 
L 262.467414 125.795062 
L 265.384478 123.977864 
L 268.189646 121.992228 
L 270.873192 119.84502 
L 273.42581 117.543667 
L 275.838662 115.096118 
L 278.103384 112.510836 
L 280.21212 109.796762 
L 282.157554 106.963289 
L 283.932931 104.020223 
L 285.532089 100.977751 
L 286.949466 97.846413 
L 288.180139 94.637048 
L 289.219824 91.36078 
L 290.064896 88.028968 
L 290.712409 84.653165 
L 291.1601 81.245066 
L 291.4064 77.81649 
L 291.450436 74.379336 
L 291.292036 70.945526 
L 290.931732 67.526971 
L 290.370755 64.135547 
L 289.611032 60.78302 
L 288.655181 57.481032 
L 287.506501 54.241056 
L 286.16896 51.074346 
L 284.64718 47.991904 
L 282.946427 45.004447 
L 281.072576 42.122349 
L 279.032104 39.355617 
L 276.832083 36.713891 
L 274.480152 34.206387 
L 271.984474 31.84185 
L 269.353724 29.628541 
L 266.597018 27.574167 
L 263.723911 25.685891 
L 260.744368 23.970303 
L 257.66876 22.433416 
L 254.507772 21.080613 
L 251.272401 19.916642 
L 247.973899 18.945594 
L 244.623745 18.170894 
L 241.233632 17.595291 
L 237.815382 17.220836 
L 234.380951 17.048886 
L 230.942323 17.080087 
L 227.511553 17.314377 
L 224.10062 17.750985 
L 220.721437 18.388439 
L 217.38592 19.224542 
L 214.105808 20.256403 
L 210.89262 21.480453 
L 209.6286 22.022966 
L 209.6286 22.022966 
" clip-path="url(#p15861b03da)" style="fill: none; stroke: #aa0000; stroke-linecap: square"/>
   </g>
   <g id="patch_4">
    <path d="M 62.946719 139.811563 
L 62.946719 10.8 
" style="fill: none; stroke: #000000; stroke-width: 0.8; stroke-linejoin: miter; stroke-linecap: square"/>
   </g>
   <g id="patch_5">
    <path d="M 403.2 139.811563 
L 403.2 10.8 
" style="fill: none; stroke: #000000; stroke-width: 0.8; stroke-linejoin: miter; stroke-linecap: square"/>
   </g>
   <g id="patch_6">
    <path d="M 62.946719 139.811563 
L 403.2 139.811563 
" style="fill: none; stroke: #000000; stroke-width: 0.8; stroke-linejoin: miter; stroke-linecap: square"/>
   </g>
   <g id="patch_7">
    <path d="M 62.946719 10.8 
L 403.2 10.8 
" style="fill: none; stroke: #000000; stroke-width: 0.8; stroke-linejoin: miter; stroke-linecap: square"/>
   </g>
  </g>
 </g>
 <defs>
  <clipPath id="p15861b03da">
   <rect x="62.946719" y="10.8" width="340.253281" height="129.011562"/>
  </clipPath>
 </defs>
</svg>
